<?xml version="1.0" standalone="no"?>
<!DOCTYPE svg PUBLIC "-//W3C//DTD SVG 20010904//EN"
 "http://www.w3.org/TR/2001/REC-SVG-20010904/DTD/svg10.dtd">
<svg version="1.0" xmlns="http://www.w3.org/2000/svg"
 width="300.000000pt" height="300.000000pt" viewBox="0 0 300.000000 300.000000"
 preserveAspectRatio="xMidYMid meet">
<metadata>
Created by potrace 1.11, written by Peter Selinger 2001-2013
</metadata>
<g transform="translate(0.000000,300.000000) scale(0.100000,-0.100000)"
fill="#000000" stroke="none">
<path d="M646 2537 c-31 -47 -56 -89 -56 -93 0 -4 -6 -15 -14 -23 -18 -22 -90
-180 -126 -280 -26 -74 -51 -159 -65 -231 -15 -71 -27 -128 -31 -155 -3 -16
-7 -118 -9 -225 -4 -204 5 -296 45 -465 6 -27 13 -57 15 -65 2 -8 14 -46 26
-85 13 -38 23 -74 24 -80 0 -5 3 -12 6 -15 3 -3 16 -32 29 -65 13 -33 30 -71
37 -84 6 -14 9 -29 6 -35 -3 -6 -2 -8 2 -3 5 4 19 -14 32 -39 13 -25 44 -78
70 -118 25 -39 46 -73 45 -76 0 -3 6 -9 14 -13 15 -8 43 3 67 28 8 8 21 16 28
17 7 2 20 10 29 18 15 14 15 17 1 40 -9 14 -18 27 -21 30 -10 9 -41 65 -47 83
-3 9 -9 17 -14 17 -5 0 -9 8 -9 19 0 10 -7 24 -15 31 -8 7 -15 16 -15 21 0 4
-13 36 -29 71 -34 75 -75 186 -92 248 -7 25 -14 50 -15 55 -2 6 -5 21 -8 35
-3 14 -11 46 -17 72 -6 26 -11 72 -12 102 -1 31 -5 56 -9 56 -3 0 -6 77 -7
170 0 94 4 170 8 170 5 0 7 12 5 27 -2 24 6 85 22 153 3 14 6 31 6 38 1 6 5
12 10 12 5 0 6 5 3 11 -10 15 56 220 68 212 6 -3 7 -1 4 4 -10 16 23 104 35
96 6 -3 8 -1 4 5 -3 6 3 27 14 46 11 20 17 36 13 36 -3 0 1 8 9 18 9 9 23 34
31 55 9 20 21 37 27 37 6 0 9 4 5 9 -3 5 2 17 11 25 8 9 12 16 7 16 -4 0 -3 4
2 8 6 4 18 19 27 33 16 25 16 25 -31 54 -25 16 -56 35 -68 43 -20 13 -24 9
-77 -71z"/>
<path d="M2232 2580 c-63 -40 -74 -58 -47 -80 8 -7 12 -16 9 -21 -3 -5 -1 -9
3 -9 13 0 45 -59 38 -70 -4 -6 -1 -9 5 -8 14 4 82 -122 75 -140 -3 -7 -1 -11
4 -8 12 8 65 -130 56 -145 -5 -7 -4 -10 2 -6 5 3 14 -8 20 -26 19 -55 54 -185
58 -219 3 -18 9 -48 14 -65 7 -24 6 -33 -2 -33 -7 0 -6 -4 3 -10 13 -8 15 -44
15 -227 -1 -198 -4 -246 -21 -323 -3 -14 -8 -36 -10 -50 -14 -75 -74 -269
-106 -340 -48 -108 -106 -215 -152 -286 l-34 -51 44 -28 c24 -15 41 -32 37
-38 -3 -6 -1 -7 5 -3 6 4 20 3 30 -3 11 -6 24 -6 33 0 7 5 10 9 6 9 -4 0 -3 6
3 13 40 47 50 62 50 74 0 7 3 13 8 13 4 0 18 23 31 50 14 27 29 46 34 43 6 -3
8 -2 5 3 -3 5 -2 20 3 33 8 20 11 22 27 10 14 -11 15 -11 5 1 -16 18 -17 44
-1 34 6 -4 8 -3 5 3 -4 6 6 39 22 74 16 35 41 105 57 154 15 50 31 92 36 93 4
2 5 8 2 13 -6 10 26 160 36 169 3 3 5 19 6 35 0 17 4 64 8 105 6 62 10 303 6
320 -3 11 -12 97 -14 130 0 19 -4 38 -8 41 -5 3 -9 28 -10 56 -2 28 -6 49 -10
46 -7 -4 -12 24 -11 69 0 10 -3 16 -6 13 -3 -3 -16 29 -28 72 -31 101 -29 95
-38 118 -29 76 -118 256 -146 297 -11 14 -19 31 -19 37 0 6 -4 11 -9 11 -5 0
-12 8 -16 18 -3 9 -16 29 -28 44 l-22 27 -63 -39z"/>
<path d="M912 2352 c-12 -10 -26 -31 -32 -46 -6 -18 -10 -296 -10 -820 l0
-793 23 -34 c21 -31 28 -34 77 -37 31 -1 65 3 77 10 12 7 66 40 120 73 54 33
102 62 108 64 5 2 14 8 20 13 16 14 135 88 141 88 3 0 17 8 32 19 43 29 136
87 152 95 8 3 53 31 100 61 47 30 119 74 160 99 41 25 111 67 155 95 44 27
114 70 155 95 120 74 140 97 140 163 0 37 -6 49 -40 83 -21 21 -61 51 -87 65
-26 14 -68 39 -93 55 -25 16 -52 33 -60 37 -8 3 -40 23 -70 43 -30 20 -95 61
-145 91 -49 30 -97 59 -106 64 -9 6 -41 24 -70 42 -30 17 -58 36 -64 40 -5 5
-17 12 -25 16 -8 3 -46 27 -85 51 -38 25 -110 70 -160 99 -49 30 -139 85 -199
121 -120 73 -172 84 -214 48z"/>
</g>
</svg>
